HIERARCHY
ROOT Hips
{
  OFFSET 1.44925e-005 102.336 -0.101585
  CHANNELS 6 Xposition Yposition Zposition Zrotation Xrotation Yrotation
  JOINT LeftUpLeg
  {
    OFFSET 8.9458 -8.66707 0.101652
    CHANNELS 3 Zrotation Xrotation Yrotation
    JOINT LeftLeg
    {
      OFFSET 0 -44.4227 1.3727
      CHANNELS 3 Zrotation Xrotation Yrotation
      JOINT LeftFoot
      {
        OFFSET -0.253549 -42.0924 -1.46059
        CHANNELS 3 Zrotation Xrotation Yrotation
        JOINT LeftToes
        {
          OFFSET -0.04 -4.41509 8.4991
          CHANNELS 3 Zrotation Xrotation Yrotation
          End Site
          {
            OFFSET 0.08 -0.047448 9.77979
          }
        }
      }
    }
  }
  JOINT Spine
  {
    OFFSET 0 11.8905 0
    CHANNELS 3 Zrotation Xrotation Yrotation
    JOINT Spine1
    {
      OFFSET 0 25.6574 0.127663
      CHANNELS 3 Zrotation Xrotation Yrotation
      JOINT RightShoulder
      {
        OFFSET -8.99 -0.362252 -0.22
        CHANNELS 3 Zrotation Xrotation Yrotation
        JOINT RightArm
        {
          OFFSET -10.2827 -0.00338 0.322123
          CHANNELS 3 Zrotation Xrotation Yrotation
          JOINT RightForeArm
          {
            OFFSET -26.364 0.099144 -1.42434
            CHANNELS 3 Zrotation Xrotation Yrotation
            JOINT RightHand
            {
              OFFSET -22.0324 0.085362 1.02216
              CHANNELS 3 Zrotation Xrotation Yrotation
              End Site
              {
                OFFSET -13.3284 -0.6 1.50291
              }
            }
          }
        }
      }
      JOINT LeftShoulder1
      {
        OFFSET 8.99 -0.362252 -0.22
        CHANNELS 3 Zrotation Xrotation Yrotation
        JOINT LeftArm
        {
          OFFSET 10.2827 -0.00337999 0.322123
          CHANNELS 3 Zrotation Xrotation Yrotation
          JOINT LeftForeArm
          {
            OFFSET 26.2597 0.099144 -1.42434
            CHANNELS 3 Zrotation Xrotation Yrotation
            JOINT LeftHand
            {
              OFFSET 22.0902 0.085362 1.02216
              CHANNELS 3 Zrotation Xrotation Yrotation
              End Site
              {
                OFFSET 13.419 -0.6 1.50291
              }
            }
          }
        }
      }
      JOINT Head
      {
        OFFSET 0 8.73416 0.011341
        CHANNELS 3 Zrotation Xrotation Yrotation
        End Site
        {
          OFFSET -0.29 12.7742 2.51395
        }
      }
    }
  }
  JOINT RightUpLeg
  {
    OFFSET -8.9458 -8.66707 0.101652
    CHANNELS 3 Zrotation Xrotation Yrotation
    JOINT RightLeg
    {
      OFFSET 0 -44.4227 1.3727
      CHANNELS 3 Zrotation Xrotation Yrotation
      JOINT RightFoot
      {
        OFFSET 0.253549 -42.0924 -1.46059
        CHANNELS 3 Zrotation Xrotation Yrotation
        JOINT RightToes
        {
          OFFSET 0.04 -4.41509 8.4991
          CHANNELS 3 Zrotation Xrotation Yrotation
          End Site
          {
            OFFSET -0.08 -0.137448 9.77979
          }
        }
      }
    }
  }
}
MOTION
Frames:	7
Frame Time:	0.0333333
48.6666 91.1643 0.577334 2.49856 0.693074 -94.4476 -0.487965 -43.089 -2.52826 1.51762 45.9654 22.3086 -2.53165 -8.39865 0.0184592 -1.28211e-009 8.75263e-006 -1.46771e-008 -3.32458 43.7415 2.42402 1.3997 -0.878786 0.629482 32.2347 1.72769 0.44065 45.8659 -13.5378 30.0269 -5.67881 27.7539 53.5644 -19.659 8.48939 3.19519 -39.4006 3.0949 -3.27184 -33.6677 -19.3298 -25.6366 25.906 36.1967 -66.025 5.82328 9.61819 -0.917488 3.14035 -40.9136 -1.56706 4.01913 -18.3956 8.25011 -2.0551 58.8707 -21.2766 18.8203 -33.4203 4.15991 0.0462048 0.000530889 0.662642 
46.7284 91.8661 0.992119 2.43053 0.735118 -93.9884 -1.16642 -41.4188 -2.87729 1.5083 45.6199 22.3178 -2.66083 -9.82283 -0.00675358 -1.28211e-009 8.75263e-006 -1.46771e-008 -3.01642 43.2688 2.75849 0.502378 -1.41366 1.33666 31.3669 1.69537 0.445544 47.5176 -14.7372 33.9587 -6.42007 27.8029 56.1353 -19.925 8.45754 3.26503 -40.0429 3.15431 -3.30064 -32.0412 -16.7898 -21.2398 21.538 37.2928 -58.1721 5.82328 9.61819 -0.917488 2.83963 -40.4212 -3.21824 3.77083 -18.0021 8.56511 -2.10996 60.1652 -20.8207 20.0058 -29.7839 3.76397 0.0462048 0.000530889 0.662642 
44.9458 92.6661 1.43976 2.48966 0.753553 -93.7076 -1.81139 -39.6229 -3.34951 1.49432 44.6272 22.6037 -2.61934 -10.8717 -0.0239406 -1.28211e-009 8.75263e-006 -1.46771e-008 -2.56813 42.8262 2.92808 -0.574881 -2.05767 1.94551 30.3584 1.65629 0.44671 49.0466 -15.8097 37.8774 -7.02765 27.6571 59.076 -20.0825 8.44648 3.25878 -40.7304 3.21746 -3.32906 -30.2325 -14.7378 -16.3347 16.9478 37.0287 -51.1707 5.82328 9.61819 -0.917488 2.70853 -40.0963 -4.38705 3.40518 -19.2211 8.33213 -2.30051 63.1496 -20.2113 18.4669 -23.7564 2.44317 0.0462048 0.000530889 0.662642 
43.3439 93.4415 1.87863 2.57969 0.66581 -93.3826 -2.59192 -37.868 -4.04343 1.47338 43.3157 22.8569 -2.51091 -11.323 -0.0282318 -1.28211e-009 8.75263e-006 -1.46771e-008 -2.11013 42.5373 2.88821 -1.62728 -2.71395 2.31812 29.2694 1.6123 0.442143 50.5561 -16.8872 41.8602 -7.85377 27.484 62.5435 -19.6966 8.52805 2.94006 -41.281 3.2677 -3.3501 -28.4617 -13.0883 -11.1178 13.0059 35.8907 -45.6797 5.82328 9.61819 -0.917488 2.54027 -39.8241 -5.2513 2.89257 -21.843 7.66733 -2.64047 67.3695 -19.283 14.9471 -16.4501 0.950272 0.0462048 0.000530889 0.662642 
41.9284 94.0739 2.24481 2.55418 0.489053 -92.9257 -3.34401 -36.2475 -4.5118 1.44868 42.1797 22.8864 -2.56089 -11.7862 -0.037598 -1.28211e-009 8.75263e-006 -1.46771e-008 -1.7985 42.4336 2.81329 -2.54149 -3.18066 2.57481 28.2531 1.56139 0.408192 51.8784 -18.1675 45.8999 -8.49721 27.1174 66.2336 -19.201 8.65426 2.3799 -41.5946 3.29313 -3.355 -27.0245 -11.5038 -6.17427 9.54188 34.137 -41.2645 5.82328 9.61819 -0.917488 2.05441 -39.5747 -6.29664 2.28947 -24.9993 6.9502 -3.07881 71.6178 -17.4102 12.4898 -11.4843 0.216231 0.0462048 0.000530889 0.662642 
40.6462 94.5713 2.55444 2.42522 0.434435 -92.4917 -3.76002 -34.7531 -4.55475 1.42688 41.3551 22.7844 -2.74067 -12.5938 -0.0588959 -1.28211e-009 8.75263e-006 -1.46771e-008 -1.41054 42.4164 2.74341 -3.2736 -3.36459 2.83072 27.2491 1.50202 0.344852 53.0309 -19.5709 50.0385 -8.58247 26.5444 69.6441 -19.2317 8.71417 1.99001 -41.8623 3.3121 -3.35369 -25.8505 -10.032 -1.71043 6.85035 32.3 -37.9269 5.82328 9.61819 -0.917488 1.3503 -39.42 -7.48071 1.79448 -28.1578 6.40487 -3.51382 74.9041 -14.9239 12.5477 -10.8082 0.159419 0.0462048 0.000530889 0.662642 
39.4579 94.9635 2.84824 2.31232 0.575786 -92.1995 -3.8638 -33.4591 -4.50027 1.41149 40.7912 22.6831 -2.98278 -13.4767 -0.0875517 -1.28211e-009 8.75263e-006 -1.46771e-008 -0.795446 42.4353 2.58632 -3.85325 -3.3635 3.05146 26.0809 1.43721 0.278768 54.364 -20.9015 54.2231 -8.53725 25.9998 72.7395 -19.6308 8.70107 1.90955 -42.2421 3.34263 -3.36038 -24.7569 -9.00925 2.49398 5.39395 31.1516 -35.9941 5.82328 9.61819 -0.917488 0.818683 -39.4221 -8.30414 1.48033 -31.4332 6.03222 -3.76462 76.6401 -13.1092 13.6768 -12.3893 0.371701 0.0462048 0.000530889 0.662642 
